<?xml version="1.0" standalone="no"?>
<!DOCTYPE svg PUBLIC "-//W3C//DTD SVG 20010904//EN"
 "http://www.w3.org/TR/2001/REC-SVG-20010904/DTD/svg10.dtd">
<svg version="1.0" xmlns="http://www.w3.org/2000/svg"
 width="604.000000pt" height="604.000000pt" viewBox="0 0 604.000000 604.000000"
 preserveAspectRatio="xMidYMid meet">
<metadata>
Created by potrace 1.14, written by Peter Selinger 2001-2017
</metadata>
<g transform="translate(0.000000,604.000000) scale(0.100000,-0.100000)"
fill="#000000" stroke="none">
<path d="M2913 6024 c-247 -65 -393 -300 -347 -555 52 -280 350 -455 610 -358
330 122 418 548 165 795 -54 52 -142 103 -206 119 -55 14 -169 13 -222 -1z"/>
<path d="M2940 4896 l0 -145 -912 1 c-502 0 -933 -2 -958 -6 -25 -4 -58 -10
-75 -12 -51 -8 -187 -54 -249 -85 -250 -124 -442 -349 -530 -621 -14 -43 -27
-94 -31 -116 -3 -21 -8 -49 -11 -62 -4 -14 -7 -668 -8 -1454 -1 -1124 2 -1445
12 -1505 24 -146 79 -292 144 -388 15 -23 28 -46 28 -51 0 -6 3 -12 8 -14 4
-1 25 -25 47 -53 117 -146 279 -259 460 -322 157 -54 64 -52 2185 -50 1081 2
1972 5 1980 8 8 3 41 11 73 18 32 7 70 19 85 27 15 8 30 14 34 14 19 0 130 59
198 104 88 58 212 181 270 266 62 92 127 234 157 345 l27 100 2 1450 c2 1550
3 1514 -47 1680 -76 253 -268 484 -509 613 -111 60 -278 106 -400 112 -36 1
-459 3 -940 4 l-875 1 0 140 0 140 -82 3 -83 3 0 -145z"/>
</g>
</svg>
