<svg width="164" height="166" viewBox="0 0 164 166" fill="none" xmlns="http://www.w3.org/2000/svg">
<path d="M69.5913 165.029C69.0352 165.029 68.4695 164.945 67.9215 164.769C65.7069 164.056 64.2074 162.019 64.2074 159.723V135.798C27.1323 128.865 0.691055 101.304 0.691055 68.8148C0.691055 30.9629 37.165 0.171997 81.9935 0.171997C126.823 0.171997 163.296 30.9621 163.296 68.8148C163.296 103.272 133.34 132.135 93.2255 136.8L73.9254 162.853C72.9048 164.248 71.2752 165.029 69.5893 165.029L69.5913 165.029ZM82.0016 10.7845C43.1056 10.7845 11.4581 36.8168 11.4581 68.8138C11.4581 97.2913 36.2195 121.358 70.3335 126.036C72.9917 126.4 74.9749 128.644 74.9749 131.294V143.461L85.9563 128.636C86.8659 127.407 88.269 126.621 89.8086 126.484C125.572 123.239 152.543 98.4473 152.543 68.816C152.538 36.8153 120.897 10.7826 81.9997 10.7826L82.0016 10.7845ZM57.655 59.9611C52.9976 59.9611 49.2223 63.6839 49.2223 68.2767C49.2223 72.8694 52.9975 76.5922 57.655 76.5922C62.3124 76.5922 66.0876 72.8694 66.0876 68.2767C66.0876 63.6791 62.3124 59.9611 57.655 59.9611ZM83.1763 59.9611C78.5189 59.9611 74.7436 63.6839 74.7436 68.2767C74.7436 72.8694 78.5188 76.5922 83.1763 76.5922C87.8337 76.5922 91.6089 72.8694 91.6089 68.2767C91.6089 63.6791 87.8337 59.9611 83.1763 59.9611ZM108.703 59.9611C104.045 59.9611 100.27 63.6839 100.27 68.2767C100.27 72.8694 104.045 76.5922 108.703 76.5922C113.36 76.5922 117.135 72.8694 117.135 68.2767C117.13 63.6791 113.36 59.9611 108.703 59.9611Z" fill="black"/>
</svg>
