<svg width="41" height="46" viewBox="0 0 41 46" fill="none" xmlns="http://www.w3.org/2000/svg">
<path d="M27.0408 16.1951L29.4394 13.7966L31.8379 16.1951L29.4394 18.5937L27.0408 16.1951Z" fill="black"/>
<path d="M0.110046 43.1259L26.073 17.1629L28.4716 19.5615L2.50862 45.5245L0.110046 43.1259Z" fill="black"/>
<path d="M39.6938 27.6864C38.6583 27.4187 37.7461 26.804 37.1086 25.9453C36.4715 25.0866 36.1473 24.0352 36.1908 22.9667C36.2043 22.618 35.9525 22.3149 35.6075 22.264C35.262 22.2127 34.9333 22.4298 34.8449 22.7675C34.5773 23.803 33.9625 24.7156 33.1039 25.3527C32.2451 25.9902 31.1938 26.314 30.1252 26.2704C29.7765 26.257 29.4735 26.5088 29.4225 26.8538C29.3712 27.1993 29.5883 27.528 29.926 27.6164C30.9616 27.884 31.8737 28.4987 32.5112 29.3574C33.1483 30.2162 33.4726 31.2675 33.429 32.3361C33.4155 32.6848 33.6673 32.9878 34.0127 33.0388C34.3578 33.0901 34.6861 32.873 34.7749 32.5353C35.0421 31.4997 35.6569 30.5872 36.5155 29.9497C37.3747 29.3122 38.4261 28.9887 39.4946 29.0323C39.8433 29.0458 40.1464 28.794 40.1973 28.4486C40.2486 28.1035 40.0315 27.7752 39.6938 27.6864Z" fill="black"/>
<path d="M39.8168 2.86919C39.1907 3.30466 38.4338 3.51242 37.6732 3.45783C36.9123 3.40324 36.1933 3.08957 35.6356 2.56896C35.3794 2.33228 34.9863 2.32577 34.7227 2.5543C34.4591 2.78242 34.4094 3.17268 34.607 3.45987C35.0425 4.08599 35.2502 4.84249 35.1956 5.60346C35.1411 6.36443 34.8274 7.08338 34.3072 7.6411C34.0705 7.89733 34.064 8.29004 34.2925 8.5536C34.5206 8.81716 34.9105 8.86727 35.1977 8.6693C35.8242 8.23382 36.5807 8.02647 37.3417 8.08106C38.1022 8.13565 38.8216 8.44891 39.3793 8.96953C39.6352 9.2062 40.0283 9.21231 40.2918 8.98419C40.5554 8.75607 40.6051 8.36581 40.4075 8.07861C39.972 7.45249 39.7643 6.69599 39.8189 5.93502C39.8735 5.17406 40.1871 4.4551 40.7073 3.89738C40.944 3.64115 40.9505 3.24844 40.7224 2.98488C40.4939 2.72132 40.104 2.67121 39.8168 2.86919Z" fill="black"/>
<path d="M12.1582 5.46309C13.4361 6.17965 14.4296 7.31249 14.9739 8.67311C15.5177 10.0333 15.5792 11.5389 15.1482 12.939C15.0468 13.2731 15.2126 13.6295 15.5332 13.7668C15.8538 13.9045 16.2265 13.7786 16.3985 13.4751C17.115 12.1976 18.2479 11.2037 19.6085 10.6598C20.9687 10.1156 22.4742 10.0541 23.8744 10.4855C24.2084 10.5869 24.5649 10.4207 24.7021 10.1001C24.8398 9.7795 24.714 9.40717 24.4105 9.23525C23.133 8.51829 22.139 7.38543 21.5952 6.02523C21.0509 4.66462 20.9894 3.15904 21.4208 1.7589C21.5218 1.42527 21.3561 1.06842 21.0355 0.931136C20.7149 0.793447 20.3421 0.919323 20.1702 1.22281C19.4536 2.50073 18.3208 3.49426 16.9606 4.03811C15.6 4.58236 14.0944 4.64386 12.6943 4.21246C12.3606 4.11144 12.0042 4.27724 11.8665 4.59783C11.7292 4.91843 11.8547 5.29118 12.1582 5.46309Z" fill="black"/>
</svg>
