<svg width="893" height="1043" viewBox="0 0 893 1043" fill="none" xmlns="http://www.w3.org/2000/svg">
<path d="M404 200.376C404 155.202 440.668 118.582 485.9 118.582H803.1C848.332 118.582 885 155.202 885 200.376V422.368C885 467.542 848.332 504.162 803.1 504.162H485.9C440.668 504.162 404 467.542 404 422.368V200.376Z" fill="#B5A89C" stroke="black" stroke-width="15" stroke-linecap="round"/>
<path d="M548 411.5C577.072 439.421 658.173 478.511 750 411.5" stroke="black" stroke-width="15"/>
<path d="M555.405 204.805C600.255 204.805 636.655 241.095 636.655 285.809C636.655 330.523 600.255 366.813 555.405 366.813C510.555 366.813 474.155 330.523 474.155 285.809C474.155 241.095 510.555 204.805 555.405 204.805Z" fill="black"/>
<path d="M545.516 239.784C528.038 242.344 521.808 251.035 516.005 276.803C510.203 302.571 530.775 293.631 539.214 288.372C547.654 283.114 551.874 263.13 562.951 267.337C574.028 271.544 583.092 279.433 588.367 274.7C593.642 269.967 593.035 257.776 583.522 251.035C574.01 244.294 562.994 237.224 545.516 239.784Z" fill="white" stroke="black" stroke-linecap="round"/>
<path d="M577.388 307.844C583.212 307.844 587.938 312.556 587.938 318.362C587.938 324.168 583.212 328.88 577.388 328.88C571.565 328.88 566.839 324.168 566.839 318.362C566.839 312.556 571.565 307.844 577.388 307.844Z" fill="white"/>
<path d="M747.12 204.805C791.97 204.805 828.37 241.095 828.37 285.809C828.37 330.523 791.97 366.813 747.12 366.813C702.27 366.813 665.87 330.523 665.87 285.809C665.87 241.095 702.27 204.805 747.12 204.805Z" fill="black"/>
<path d="M769.104 307.836C774.927 307.836 779.653 312.548 779.653 318.354C779.653 324.159 774.927 328.871 769.104 328.871C763.281 328.871 758.554 324.159 758.554 318.354C758.554 312.548 763.281 307.836 769.104 307.836Z" fill="white"/>
<path d="M651.197 3.90442C671.599 3.90442 688.156 20.412 688.156 40.7516C688.156 61.0912 671.599 77.5988 651.197 77.5988C630.796 77.5988 614.238 61.0912 614.238 40.7516C614.238 20.412 630.796 3.90442 651.197 3.90442Z" fill="#666666" stroke="black" stroke-width="7.8" stroke-linecap="round"/>
<path d="M644.09 84.5002H658.305V118.513H644.09V84.5002Z" fill="black"/>
<path d="M566.828 511.847C566.828 511.847 457.947 714.22 542.447 780.513C579.731 809.764 616.932 820.045 650.947 818.218C694.025 815.904 731.993 794.171 758.553 766.953C806.084 718.244 812.197 513.354 713.072 505.821C613.947 498.287 566.828 511.847 566.828 511.847V511.847Z" fill="#B5A89C" stroke="black" stroke-width="14.4655" stroke-linecap="round"/>
<path d="M514.572 635.212C524.153 590.845 553.337 535.347 553.337 535.347C553.337 535.347 525.947 502.945 514.572 535.347C503.197 567.748 431.95 684.394 446.575 705.456C461.2 726.517 512.947 718.416 514.572 713.556C515.377 711.149 505.171 678.75 514.572 635.212V635.212Z" fill="#B5A89C" stroke="black" stroke-width="15" stroke-linecap="round"/>
<path d="M448.199 713.554C448.199 713.554 451.41 773.497 474.16 778.357C496.91 783.218 514.571 755.676 514.571 755.676C514.571 755.676 506.446 710.314 514.571 713.554C522.696 716.794 448.199 713.554 448.199 713.554Z" fill="#B5A89C" stroke="black" stroke-width="15" stroke-linecap="round"/>
<path d="M474.587 746.161H488.802V780.174H474.587V746.161Z" fill="black"/>
<path d="M782.513 630.178C772.933 585.812 743.748 530.313 743.748 530.313C743.748 530.313 771.138 497.911 782.513 530.313C793.888 562.715 865.136 679.361 850.511 700.422C835.886 721.483 784.138 713.383 782.513 708.522C781.709 706.115 791.915 673.716 782.513 630.178V630.178Z" fill="#B5A89C" stroke="black" stroke-width="15" stroke-linecap="round"/>
<path d="M848.853 708.52C848.853 708.52 845.642 768.464 822.892 773.324C800.142 778.184 782.481 750.643 782.481 750.643C782.481 750.643 790.606 705.28 782.481 708.52C774.356 711.761 848.853 708.52 848.853 708.52Z" fill="#B5A89C" stroke="black" stroke-width="15" stroke-linecap="round"/>
<path d="M822.465 741.128H808.25V775.14H822.465V741.128Z" fill="black"/>
<path d="M716.323 807.523C716.323 807.523 726.073 831.824 716.323 836.684C706.573 841.544 688.061 843.165 688.061 843.165L680.573 814.003L722.823 807.523H716.323Z" fill="#B5A89C" stroke="black" stroke-width="15" stroke-linecap="round"/>
<path d="M644.496 915.125C632.228 900.95 644.496 870.703 644.496 870.703C644.496 870.703 694.106 804.28 798.106 870.703C902.106 937.127 693.568 927.406 693.568 927.406C693.568 927.406 656.764 929.301 644.496 915.125V915.125Z" fill="#F72F3A" stroke="black" stroke-width="15" stroke-linecap="round"/>
<path d="M561.543 807.523C561.543 807.523 551.89 831.824 561.543 836.684C571.195 841.544 589.523 843.165 589.523 843.165L596.935 814.003L555.108 807.523H561.543Z" fill="#B5A89C" stroke="black" stroke-width="14.9248" stroke-linecap="round"/>
<path d="M632.564 915.125C644.709 900.95 632.564 870.703 632.564 870.703C632.564 870.703 583.45 804.28 480.49 870.703C377.53 937.127 583.983 927.406 583.983 927.406C583.983 927.406 620.418 929.301 632.564 915.125V915.125Z" fill="#F72F3A" stroke="black" stroke-width="14.9248" stroke-linecap="round"/>
<path d="M739.852 239.481C722.374 242.041 716.144 250.732 710.342 276.5C704.539 302.268 725.111 293.328 733.551 288.07C741.99 282.811 746.21 262.827 757.287 267.034C768.364 271.241 777.429 279.13 782.703 274.397C787.978 269.664 787.371 257.473 777.858 250.732C768.346 243.992 757.331 236.921 739.852 239.481Z" fill="white" stroke="black" stroke-linecap="round"/>
<path d="M477.422 896.063L477.425 985.947L655.777 908.982L477.422 896.063Z" fill="#CAC0C1" stroke="black" stroke-linecap="round"/>
<path d="M149.311 697.346C151.987 687.829 156.68 678.244 164.018 674.528C172.327 670.321 183.201 672.635 183.201 672.635C183.201 672.635 442.312 705.561 461.187 740.806C480.062 776.052 480.816 864.078 477.424 884.351C470.972 922.919 488.241 1024.51 449.526 1034.15C410.811 1043.8 151.098 984.337 131.741 957.019C112.383 929.7 111.022 922.629 112.383 862.207C113.745 801.785 134.585 749.716 149.311 697.346Z" fill="#61574D"/>
<path d="M183.201 672.635C183.201 672.635 442.312 705.561 461.187 740.806C480.062 776.052 480.816 864.078 477.424 884.351C470.972 922.919 488.241 1024.51 449.526 1034.15C410.811 1043.8 151.098 984.337 131.741 957.019C112.383 929.7 111.022 922.629 112.383 862.207C113.745 801.785 134.585 749.716 149.311 697.346C151.987 687.829 156.68 678.244 164.018 674.528M183.201 672.635C183.201 672.635 172.327 670.321 164.018 674.528M183.201 672.635C183.201 672.635 172.341 671.824 164.018 674.528" stroke="black" stroke-width="15" stroke-linecap="round"/>
<path d="M477.107 990.287L681.814 900.776C681.814 900.776 696.332 915.239 681.814 928.095C667.296 940.951 459.203 1024.51 459.203 1024.51L477.107 990.287Z" fill="#61574D" stroke="black" stroke-width="15" stroke-linecap="round"/>
<path d="M477.425 896.062L681.814 908.811C681.814 908.811 690.424 881.492 664.614 879.885C638.804 878.278 480.466 873.241 480.466 873.241L477.425 896.062Z" fill="#61574D" stroke="black" stroke-width="15" stroke-linecap="round"/>
<path opacity="0.61" d="M293.111 772.375C320.715 772.375 343.118 794.693 343.118 822.192C343.118 849.69 320.715 872.008 293.111 872.008C265.507 872.008 243.104 849.69 243.104 822.192C243.104 794.693 265.507 772.375 293.111 772.375Z" fill="#CAC0C1"/>
<path d="M263.63 820.103C268.816 820.745 279.438 842.634 279.438 842.634C279.438 842.634 315.711 809.722 326.085 810.595" stroke="white" stroke-width="12.15" stroke-linecap="round"/>
<path d="M617.264 928.386L477.424 918.994" stroke="black" stroke-width="15" stroke-linecap="round"/>
<path d="M572.239 947.914L480 941.664" stroke="black" stroke-width="11.7576" stroke-linecap="round"/>
<path d="M596.032 902.609L473.659 957.931" stroke="black" stroke-width="11.7576" stroke-linecap="round"/>
<path d="M537.065 898.785L473.661 928.356" stroke="black" stroke-width="11.7576" stroke-linecap="round"/>
<path d="M532.327 967.039L479.825 963.568" stroke="black" stroke-width="11.7576" stroke-linecap="round"/>
<path d="M53.6386 689.698C53.674 688.806 53.779 687.907 53.9533 687C53.8647 687.923 53.7595 688.822 53.6386 689.698C53.1862 701.103 64.0927 711.606 87 729.121C72.9304 737.005 54.3599 739.353 57.6605 777C55.595 753.441 39.167 729.121 19 729.121C30.3271 722.401 49.8268 717.324 53.6386 689.698Z" fill="#F7BF2F"/>
<path d="M53.9533 687C51.5524 699.501 62.2997 710.235 87 729.121C72.9304 737.005 54.3599 739.353 57.6605 777C55.595 753.441 39.167 729.121 19 729.121C30.6864 722.188 51.0723 717.003 53.9533 687Z" stroke="black" stroke-width="10"/>
<path d="M87.6386 595.302C87.674 596.194 87.779 597.093 87.9533 598C87.8647 597.077 87.7595 596.178 87.6386 595.302C87.1862 583.897 98.0927 573.394 121 555.879C106.93 547.995 88.3599 545.647 91.6605 508C89.595 531.559 73.167 555.879 53 555.879C64.3271 562.599 83.8268 567.676 87.6386 595.302Z" fill="#F7BF2F"/>
<path d="M87.9533 598C85.5524 585.499 96.2997 574.765 121 555.879C106.93 547.995 88.3599 545.647 91.6605 508C89.595 531.559 73.167 555.879 53 555.879C64.6864 562.812 85.0723 567.997 87.9533 598Z" stroke="black" stroke-width="10"/>
<path d="M215.411 726.432C215.461 728.274 215.611 730.127 215.86 732C215.733 730.096 215.583 728.241 215.411 726.432C214.766 702.899 230.323 681.225 263 645.085C242.93 628.814 211.152 647.684 215.86 570C212.914 618.614 194.768 645.085 166 645.085C182.158 658.95 209.973 669.427 215.411 726.432Z" fill="#F7BF2F"/>
<path d="M215.86 732C212.435 706.204 227.766 684.054 263 645.085C242.93 628.814 211.152 647.684 215.86 570C212.914 618.614 194.768 645.085 166 645.085C182.67 659.39 211.75 670.089 215.86 732Z" stroke="black" stroke-width="10"/>
</svg>
